<svg xmlns="http://www.w3.org/2000/svg" viewBox="0 0 32 32">
  <rect width="32" height="32" rx="7" fill="#6b1f2a"/>
  <g fill="none" stroke="#e3c890" stroke-width="1.5" stroke-linecap="round" stroke-linejoin="round">
    <path d="M11 4h10"/>
    <path d="M11 4c.3 5 2.3 8 5 8s4.7-3 5-8"/>
    <path d="M12.2 5.6c1.4 1 2.6 1 3.8.3 1.2-.7 2.4-.5 3.8.1"/>
    <path d="M16 12v6"/>
    <path d="M16 18.5c-2.6-1.4-6.4-1.4-9 0v5c2.6-1.4 6.4-1.4 9 0"/>
    <path d="M16 18.5c2.6-1.4 6.4-1.4 9 0v5c-2.6-1.4-6.4-1.4-9 0"/>
    <path d="M16 18.5v6"/>
  </g>
</svg>
